<?xml version="1.0" encoding="UTF-8"?>
<svg xmlns="http://www.w3.org/2000/svg"
     xmlns:xlink="http://www.w3.org/1999/xlink"
     version="1.2"
     width="270mm" height="90mm" viewBox="0 0 270 90"
     stroke="none"
     fill="#000000"
     stroke-width="0.3"
     font-size="3.88"
>
<defs>
  <marker id="arrow" markerWidth="15" markerHeight="7" refX="5" refY="3.5" orient="auto" markerUnits="strokeWidth">
    <path d="M0,0 L15,3.5 L0,7 z" stroke="context-stroke" fill="context-stroke"/>
  </marker>
</defs>
<g stroke-width="0.53" fill="#000000" fill-opacity="0.000" stroke="#D3D3D3" id="img-5a30efdb-1">
  <g transform="translate(35,7.5)">
    <path fill="none" d="M-6.25,0 L 6.25 0" class="primitive"/>
  </g>
  <g transform="translate(160,7.5)">
    <path fill="none" d="M6.25,0 L -6.25 0" class="primitive"/>
  </g>
  <g transform="translate(47.5,32.5)">
    <path fill="none" d="M-18.75,0 L 18.75 0" class="primitive"/>
  </g>
  <g transform="translate(235,32.5)">
    <path fill="none" d="M6.25,0 L -6.25 0" class="primitive"/>
  </g>
  <g transform="translate(47.5,57.5)">
    <path fill="none" d="M-18.75,0 L 18.75 0" class="primitive"/>
  </g>
  <g transform="translate(235,57.5)">
    <path fill="none" d="M6.25,0 L -6.25 0" class="primitive"/>
  </g>
  <g transform="translate(35,82.5)">
    <path fill="none" d="M-6.25,0 L 6.25 0" class="primitive"/>
  </g>
  <g transform="translate(160,82.5)">
    <path fill="none" d="M6.25,0 L -6.25 0" class="primitive"/>
  </g>
  <g transform="translate(135,7.5)">
    <path fill="none" d="M6.25,0 L -6.25 0" class="primitive"/>
  </g>
  <g transform="translate(110,7.5)">
    <path fill="none" d="M6.25,0 L -6.25 0" class="primitive"/>
  </g>
  <g transform="translate(135,82.5)">
    <path fill="none" d="M6.25,0 L -6.25 0" class="primitive"/>
  </g>
  <g transform="translate(110,82.5)">
    <path fill="none" d="M6.25,0 L -6.25 0" class="primitive"/>
  </g>
  <g transform="translate(85,7.5)">
    <path fill="none" d="M6.25,0 L -6.25 0" class="primitive"/>
  </g>
  <g transform="translate(60,7.5)">
    <path fill="none" d="M6.25,0 L -6.25 0" class="primitive"/>
  </g>
  <g transform="translate(85,82.5)">
    <path fill="none" d="M6.25,0 L -6.25 0" class="primitive"/>
  </g>
  <g transform="translate(60,82.5)">
    <path fill="none" d="M6.25,0 L -6.25 0" class="primitive"/>
  </g>
  <g transform="translate(222.5,45)">
    <path fill="none" d="M0,-10.42 L 0 10.42" class="primitive"/>
  </g>
  <g transform="translate(210,32.5)">
    <path fill="none" d="M6.25,0 L -6.25 0" class="primitive"/>
  </g>
  <g transform="translate(197.5,57.5)">
    <path fill="none" d="M18.75,0 L -18.75 0" class="primitive"/>
  </g>
  <g transform="translate(47.5,45)">
    <path fill="none" d="M0,-35.42 L 0 35.42" class="primitive"/>
  </g>
  <g transform="translate(185,32.5)">
    <path fill="none" d="M6.25,0 L -6.25 0" class="primitive"/>
  </g>
  <g transform="translate(160,32.5)">
    <path fill="none" d="M6.25,0 L -6.25 0" class="primitive"/>
  </g>
  <g transform="translate(160,57.5)">
    <path fill="none" d="M6.25,0 L -6.25 0" class="primitive"/>
  </g>
  <g transform="translate(147.5,51.25)">
    <path fill="none" d="M0,4.17 L 0 -4.17" class="primitive"/>
  </g>
  <g transform="translate(135,57.5)">
    <path fill="none" d="M6.25,0 L -6.25 0" class="primitive"/>
  </g>
  <g transform="translate(147.5,38.75)">
    <path fill="none" d="M0,-4.17 L 0 4.17" class="primitive"/>
  </g>
  <g transform="translate(135,32.5)">
    <path fill="none" d="M6.25,0 L -6.25 0" class="primitive"/>
  </g>
  <g transform="translate(122.5,45)">
    <path fill="none" d="M0,10.42 L 0 -10.42" class="primitive"/>
  </g>
  <g transform="translate(110,57.5)">
    <path fill="none" d="M6.25,0 L -6.25 0" class="primitive"/>
  </g>
  <g transform="translate(110,32.5)">
    <path fill="none" d="M6.25,0 L -6.25 0" class="primitive"/>
  </g>
  <g transform="translate(85,32.5)">
    <path fill="none" d="M6.25,0 L -6.25 0" class="primitive"/>
  </g>
  <g transform="translate(85,57.5)">
    <path fill="none" d="M6.25,0 L -6.25 0" class="primitive"/>
  </g>
</g>
<g stroke-width="0.53" stroke="#D3D3D3" id="img-5a30efdb-2">
</g>
<g font-size="4" stroke="#000000" stroke-opacity="0.000" fill="#000000" id="img-5a30efdb-3">
  <g transform="translate(35,7.5)">
    <g class="primitive">
      <text text-anchor="middle" dy="0.35em"></text>
    </g>
  </g>
  <g transform="translate(160,7.5)">
    <g class="primitive">
      <text text-anchor="middle" dy="0.35em"></text>
    </g>
  </g>
  <g transform="translate(47.5,32.5)">
    <g class="primitive">
      <text text-anchor="middle" dy="0.35em"></text>
    </g>
  </g>
  <g transform="translate(235,32.5)">
    <g class="primitive">
      <text text-anchor="middle" dy="0.35em"></text>
    </g>
  </g>
  <g transform="translate(47.5,57.5)">
    <g class="primitive">
      <text text-anchor="middle" dy="0.35em"></text>
    </g>
  </g>
  <g transform="translate(235,57.5)">
    <g class="primitive">
      <text text-anchor="middle" dy="0.35em"></text>
    </g>
  </g>
  <g transform="translate(35,82.5)">
    <g class="primitive">
      <text text-anchor="middle" dy="0.35em"></text>
    </g>
  </g>
  <g transform="translate(160,82.5)">
    <g class="primitive">
      <text text-anchor="middle" dy="0.35em"></text>
    </g>
  </g>
  <g transform="translate(135,7.5)">
    <g class="primitive">
      <text text-anchor="middle" dy="0.35em"></text>
    </g>
  </g>
  <g transform="translate(110,7.5)">
    <g class="primitive">
      <text text-anchor="middle" dy="0.35em"></text>
    </g>
  </g>
  <g transform="translate(135,82.5)">
    <g class="primitive">
      <text text-anchor="middle" dy="0.35em"></text>
    </g>
  </g>
  <g transform="translate(110,82.5)">
    <g class="primitive">
      <text text-anchor="middle" dy="0.35em"></text>
    </g>
  </g>
  <g transform="translate(85,7.5)">
    <g class="primitive">
      <text text-anchor="middle" dy="0.35em"></text>
    </g>
  </g>
  <g transform="translate(60,7.5)">
    <g class="primitive">
      <text text-anchor="middle" dy="0.35em"></text>
    </g>
  </g>
  <g transform="translate(85,82.5)">
    <g class="primitive">
      <text text-anchor="middle" dy="0.35em"></text>
    </g>
  </g>
  <g transform="translate(60,82.5)">
    <g class="primitive">
      <text text-anchor="middle" dy="0.35em"></text>
    </g>
  </g>
  <g transform="translate(222.5,45)">
    <g class="primitive">
      <text text-anchor="middle" dy="0.35em"></text>
    </g>
  </g>
  <g transform="translate(210,32.5)">
    <g class="primitive">
      <text text-anchor="middle" dy="0.35em"></text>
    </g>
  </g>
  <g transform="translate(197.5,57.5)">
    <g class="primitive">
      <text text-anchor="middle" dy="0.35em"></text>
    </g>
  </g>
  <g transform="translate(47.5,45)">
    <g class="primitive">
      <text text-anchor="middle" dy="0.35em"></text>
    </g>
  </g>
  <g transform="translate(185,32.5)">
    <g class="primitive">
      <text text-anchor="middle" dy="0.35em"></text>
    </g>
  </g>
  <g transform="translate(160,32.5)">
    <g class="primitive">
      <text text-anchor="middle" dy="0.35em"></text>
    </g>
  </g>
  <g transform="translate(160,57.5)">
    <g class="primitive">
      <text text-anchor="middle" dy="0.35em"></text>
    </g>
  </g>
  <g transform="translate(147.5,51.25)">
    <g class="primitive">
      <text text-anchor="middle" dy="0.35em"></text>
    </g>
  </g>
  <g transform="translate(135,57.5)">
    <g class="primitive">
      <text text-anchor="middle" dy="0.35em"></text>
    </g>
  </g>
  <g transform="translate(147.5,38.75)">
    <g class="primitive">
      <text text-anchor="middle" dy="0.35em"></text>
    </g>
  </g>
  <g transform="translate(135,32.5)">
    <g class="primitive">
      <text text-anchor="middle" dy="0.35em"></text>
    </g>
  </g>
  <g transform="translate(122.5,45)">
    <g class="primitive">
      <text text-anchor="middle" dy="0.35em"></text>
    </g>
  </g>
  <g transform="translate(110,57.5)">
    <g class="primitive">
      <text text-anchor="middle" dy="0.35em"></text>
    </g>
  </g>
  <g transform="translate(110,32.5)">
    <g class="primitive">
      <text text-anchor="middle" dy="0.35em"></text>
    </g>
  </g>
  <g transform="translate(85,32.5)">
    <g class="primitive">
      <text text-anchor="middle" dy="0.35em"></text>
    </g>
  </g>
  <g transform="translate(85,57.5)">
    <g class="primitive">
      <text text-anchor="middle" dy="0.35em"></text>
    </g>
  </g>
</g>
<g stroke-width="0" stroke="#000000" stroke-opacity="0.000" id="img-5a30efdb-4">
  <g transform="translate(22.5,7.5)" fill="#ADD8E6">
    <circle cx="0" cy="0" r="6" class="primitive"/>
  </g>
  <g transform="translate(172.5,7.5)" fill="#808080">
    <circle cx="0" cy="0" r="6" class="primitive"/>
  </g>
  <g transform="translate(22.5,32.5)" fill="#ADD8E6">
    <circle cx="0" cy="0" r="6" class="primitive"/>
  </g>
  <g transform="translate(247.5,32.5)" fill="#808080">
    <circle cx="0" cy="0" r="6" class="primitive"/>
  </g>
  <g transform="translate(22.5,57.5)" fill="#ADD8E6">
    <circle cx="0" cy="0" r="6" class="primitive"/>
  </g>
  <g transform="translate(247.5,57.5)" fill="#808080">
    <circle cx="0" cy="0" r="6" class="primitive"/>
  </g>
  <g transform="translate(22.5,82.5)" fill="#ADD8E6">
    <circle cx="0" cy="0" r="6" class="primitive"/>
  </g>
  <g transform="translate(172.5,82.5)" fill="#808080">
    <circle cx="0" cy="0" r="6" class="primitive"/>
  </g>
  <g transform="translate(147.5,7.5)" fill="#FFFF00">
    <circle cx="0" cy="0" r="6" class="primitive"/>
  </g>
  <g transform="translate(122.5,7.5)" fill="#008000">
    <circle cx="0" cy="0" r="6" class="primitive"/>
  </g>
  <g transform="translate(147.5,82.5)" fill="#FFFF00">
    <circle cx="0" cy="0" r="6" class="primitive"/>
  </g>
  <g transform="translate(122.5,82.5)" fill="#008000">
    <circle cx="0" cy="0" r="6" class="primitive"/>
  </g>
  <g transform="translate(97.5,7.5)" fill="#FFFF00">
    <circle cx="0" cy="0" r="6" class="primitive"/>
  </g>
  <g transform="translate(72.5,7.5)" fill="#008000">
    <circle cx="0" cy="0" r="6" class="primitive"/>
  </g>
  <g transform="translate(97.5,82.5)" fill="#FFFF00">
    <circle cx="0" cy="0" r="6" class="primitive"/>
  </g>
  <g transform="translate(72.5,82.5)" fill="#008000">
    <circle cx="0" cy="0" r="6" class="primitive"/>
  </g>
  <g transform="translate(222.5,32.5)" fill="#008000">
    <circle cx="0" cy="0" r="6" class="primitive"/>
  </g>
  <g transform="translate(222.5,57.5)" fill="#FF0000">
    <circle cx="0" cy="0" r="6" class="primitive"/>
  </g>
  <g transform="translate(47.5,7.5)" fill="#008000">
    <circle cx="0" cy="0" r="6" class="primitive"/>
  </g>
  <g transform="translate(47.5,82.5)" fill="#FF0000">
    <circle cx="0" cy="0" r="6" class="primitive"/>
  </g>
  <g transform="translate(197.5,32.5)" fill="#FFFF00">
    <circle cx="0" cy="0" r="6" class="primitive"/>
  </g>
  <g transform="translate(172.5,32.5)" fill="#008000">
    <circle cx="0" cy="0" r="6" class="primitive"/>
  </g>
  <g transform="translate(172.5,57.5)" fill="#FFFF00">
    <circle cx="0" cy="0" r="6" class="primitive"/>
  </g>
  <g transform="translate(147.5,57.5)" fill="#008000">
    <circle cx="0" cy="0" r="6" class="primitive"/>
  </g>
  <g transform="translate(147.5,32.5)" fill="#008000">
    <circle cx="0" cy="0" r="6" class="primitive"/>
  </g>
  <g transform="translate(147.5,45)" fill="#FFFF00">
    <circle cx="0" cy="0" r="6" class="primitive"/>
  </g>
  <g transform="translate(122.5,57.5)" fill="#008000">
    <circle cx="0" cy="0" r="6" class="primitive"/>
  </g>
  <g transform="translate(122.5,32.5)" fill="#FF0000">
    <circle cx="0" cy="0" r="6" class="primitive"/>
  </g>
  <g transform="translate(97.5,32.5)" fill="#FFFF00">
    <circle cx="0" cy="0" r="6" class="primitive"/>
  </g>
  <g transform="translate(72.5,32.5)" fill="#008000">
    <circle cx="0" cy="0" r="6" class="primitive"/>
  </g>
  <g transform="translate(97.5,57.5)" fill="#008000">
    <circle cx="0" cy="0" r="6" class="primitive"/>
  </g>
  <g transform="translate(72.5,57.5)" fill="#FFFF00">
    <circle cx="0" cy="0" r="6" class="primitive"/>
  </g>
</g>
<g font-size="4" stroke="#000000" stroke-opacity="0.000" fill="#000000" id="img-5a30efdb-5">
  <g transform="translate(22.5,7.5)">
    <g class="primitive">
      <text text-anchor="middle" dy="0.35em">[1]</text>
    </g>
  </g>
  <g transform="translate(172.5,7.5)">
    <g class="primitive">
      <text text-anchor="middle" dy="0.35em">[2]</text>
    </g>
  </g>
  <g transform="translate(22.5,32.5)">
    <g class="primitive">
      <text text-anchor="middle" dy="0.35em">[3]</text>
    </g>
  </g>
  <g transform="translate(247.5,32.5)">
    <g class="primitive">
      <text text-anchor="middle" dy="0.35em">[4]</text>
    </g>
  </g>
  <g transform="translate(22.5,57.5)">
    <g class="primitive">
      <text text-anchor="middle" dy="0.35em">[5]</text>
    </g>
  </g>
  <g transform="translate(247.5,57.5)">
    <g class="primitive">
      <text text-anchor="middle" dy="0.35em">[6]</text>
    </g>
  </g>
  <g transform="translate(22.5,82.5)">
    <g class="primitive">
      <text text-anchor="middle" dy="0.35em">[7]</text>
    </g>
  </g>
  <g transform="translate(172.5,82.5)">
    <g class="primitive">
      <text text-anchor="middle" dy="0.35em">[8]</text>
    </g>
  </g>
  <g transform="translate(147.5,7.5)">
    <g class="primitive">
      <text text-anchor="middle" dy="0.35em">[9]</text>
    </g>
  </g>
  <g transform="translate(122.5,7.5)">
    <g class="primitive">
      <text text-anchor="middle" dy="-0.25em">[10]<tspan x="0" dy="1.2em">7π/4</tspan></text>
    </g>
  </g>
  <g transform="translate(147.5,82.5)">
    <g class="primitive">
      <text text-anchor="middle" dy="0.35em">[14]</text>
    </g>
  </g>
  <g transform="translate(122.5,82.5)">
    <g class="primitive">
      <text text-anchor="middle" dy="-0.25em">[15]<tspan x="0" dy="1.2em">1π/2</tspan></text>
    </g>
  </g>
  <g transform="translate(97.5,7.5)">
    <g class="primitive">
      <text text-anchor="middle" dy="0.35em">[16]</text>
    </g>
  </g>
  <g transform="translate(72.5,7.5)">
    <g class="primitive">
      <text text-anchor="middle" dy="-0.25em">[17]<tspan x="0" dy="1.2em">1π/1</tspan></text>
    </g>
  </g>
  <g transform="translate(97.5,82.5)">
    <g class="primitive">
      <text text-anchor="middle" dy="0.35em">[20]</text>
    </g>
  </g>
  <g transform="translate(72.5,82.5)">
    <g class="primitive">
      <text text-anchor="middle" dy="-0.25em">[21]<tspan x="0" dy="1.2em">1π/1</tspan></text>
    </g>
  </g>
  <g transform="translate(222.5,32.5)">
    <g class="primitive">
      <text text-anchor="middle" dy="-0.25em">[22]<tspan x="0" dy="1.2em">0π/1</tspan></text>
    </g>
  </g>
  <g transform="translate(222.5,57.5)">
    <g class="primitive">
      <text text-anchor="middle" dy="-0.25em">[23]<tspan x="0" dy="1.2em">0π/1</tspan></text>
    </g>
  </g>
  <g transform="translate(47.5,7.5)">
    <g class="primitive">
      <text text-anchor="middle" dy="-0.25em">[24]<tspan x="0" dy="1.2em">0π/1</tspan></text>
    </g>
  </g>
  <g transform="translate(47.5,82.5)">
    <g class="primitive">
      <text text-anchor="middle" dy="-0.25em">[25]<tspan x="0" dy="1.2em">0π/1</tspan></text>
    </g>
  </g>
  <g transform="translate(197.5,32.5)">
    <g class="primitive">
      <text text-anchor="middle" dy="0.35em">[28]</text>
    </g>
  </g>
  <g transform="translate(172.5,32.5)">
    <g class="primitive">
      <text text-anchor="middle" dy="-0.25em">[29]<tspan x="0" dy="1.2em">1π/4</tspan></text>
    </g>
  </g>
  <g transform="translate(172.5,57.5)">
    <g class="primitive">
      <text text-anchor="middle" dy="0.35em">[30]</text>
    </g>
  </g>
  <g transform="translate(147.5,57.5)">
    <g class="primitive">
      <text text-anchor="middle" dy="-0.25em">[34]<tspan x="0" dy="1.2em">0π/1</tspan></text>
    </g>
  </g>
  <g transform="translate(147.5,32.5)">
    <g class="primitive">
      <text text-anchor="middle" dy="-0.25em">[35]<tspan x="0" dy="1.2em">0π/1</tspan></text>
    </g>
  </g>
  <g transform="translate(147.5,45)">
    <g class="primitive">
      <text text-anchor="middle" dy="0.35em">[36]</text>
    </g>
  </g>
  <g transform="translate(122.5,57.5)">
    <g class="primitive">
      <text text-anchor="middle" dy="-0.25em">[37]<tspan x="0" dy="1.2em">0π/1</tspan></text>
    </g>
  </g>
  <g transform="translate(122.5,32.5)">
    <g class="primitive">
      <text text-anchor="middle" dy="-0.25em">[38]<tspan x="0" dy="1.2em">0π/1</tspan></text>
    </g>
  </g>
  <g transform="translate(97.5,32.5)">
    <g class="primitive">
      <text text-anchor="middle" dy="0.35em">[40]</text>
    </g>
  </g>
  <g transform="translate(72.5,32.5)">
    <g class="primitive">
      <text text-anchor="middle" dy="-0.25em">[41]<tspan x="0" dy="1.2em">1π/2</tspan></text>
    </g>
  </g>
  <g transform="translate(97.5,57.5)">
    <g class="primitive">
      <text text-anchor="middle" dy="-0.25em">[49]<tspan x="0" dy="1.2em">3π/2</tspan></text>
    </g>
  </g>
  <g transform="translate(72.5,57.5)">
    <g class="primitive">
      <text text-anchor="middle" dy="0.35em">[53]</text>
    </g>
  </g>
</g>
</svg>
